<?xml version="1.0" encoding="utf-8"?>
<svg version="1.1" id="Layer_1" xmlns="http://www.w3.org/2000/svg" xmlns:xlink="http://www.w3.org/1999/xlink" x="0px" y="0px"
	 viewBox="0 0 593.64 202.16" style="enable-background:new 0 0 593.64 202.16;" xml:space="preserve">
<style type="text/css">
	.st0{fill:#020202;}
</style>
<g>
	<path class="st0" d="M472.46,85.76c0.24-0.7,0.42-1.48,0.73-2.1c1.29-2.55,2.62-5.04,3.92-7.56c2.15-4.16,1.34-10.29-0.9-17.32
		c-1.28-4.01-2.66-8.04-3.99-12.06c-0.22-0.68-0.63-1.51-0.16-1.74c0.44-0.22,0.89,0.47,1.35,1.08c3.06,4.01,6.09,8.1,9.22,11.95
		c1.69,2.08,3.56,3.92,5.38,5.54c2.56,2.28,4.94,2.88,7.2,3.28c2.71,0.48,5.32,0.66,7.98,0.98c0.44,0.05,0.88,0.11,1.34,0.26
		c0.25,0.08,0.72,0.38,0.79,0.58c0.16,0.43,0.23,0.97,0.15,1.27c-0.14,0.53-0.42,0.92-0.65,1.36c-1.39,2.76-2.87,5.42-4.14,8.32
		c-1.21,2.75-1.21,6.46-0.15,11.03c1.28,5.53,3.28,11.14,5.2,16.74c0.1,0.29,0.27,0.62,0.3,0.85c0.04,0.51,0.01,0.98,0.01,1.47
		c-0.37-0.28-0.79-0.46-1.09-0.85c-2.78-3.62-5.52-7.33-8.33-10.9c-1.42-1.8-2.96-3.4-4.46-5.01c-2.89-3.08-5.67-4.4-8.3-4.88
		c-3.11-0.57-6.12-0.82-9.19-1.25c-0.61-0.09-1.28-0.36-1.92-0.54C472.66,86.1,472.56,85.93,472.46,85.76z"/>
	<path class="st0" d="M458.27,172.23c-11.38,1.21-22.21,0.52-31.16-7.64c-3.34-3.04-6.56-6.26-8.02-11.15c3.21,0.17,6.01,0.33,8.37,0.45
		c-1.48-4.95-3.51-9.7-4.2-14.65c-0.74-5.37-0.25-10.92-0.25-16.38c0-1.07,0.14-2.15,0.26-3.22c0.19-1.7-0.77-2.1-2.24-2.28
		c-5.54-0.7-9.6-3.81-12.69-8.26c-1.36-1.96-0.8-3.26,1.36-3.33c7.32-0.21,12.65-4.11,16.6-9.68c2.93-4.13,4.91-8.94,7.26-13.47
		c0.31-0.61,0.44-1.38,0.43-2.08c-0.15-11.42,4.8-20.76,11.7-29.4c12.86-16.12,30.15-23.51,50.08-25.84
		c0.35-0.04,0.7-0.11,1.05-0.18c0.05-0.01,0.07-0.13,0.31-0.64c-3.43-0.24-6.69-0.75-9.94-0.62c-3.56,0.14-5.79-1.47-7.48-4.27
		c-2.35-3.91-2.96-8.27-2.91-12.7c0.01-0.99,1.07-2.25,1.99-2.91c3.8-2.72,8.14-2.98,12.37-1.52c8.29,2.86,16.47,6.07,24.69,9.13
		c0.41,0.15,0.8,0.35,1.25,0.54c0.15-4.91,2.49-7.32,7.39-7.29c4.03,0.02,8.07,0.31,12.09,0.66c3.73,0.32,6.9-0.59,9.56-3.31
		c0.63-0.64,1.61-0.94,2.43-1.4c0.42,0.84,1.09,1.65,1.21,2.53c0.8,5.95,2.74,11.48,5.47,16.81c2.36,4.61,4.25,9.36,1.92,14.68
		c-0.21,0.47,0.51,1.62,1.08,2.12c3.05,2.65,6.22,5.17,9.31,7.78c6.03,5.09,9.71,11.65,12,19.13c0.87,2.85,0.02,5.01-2.4,6.1
		c-3.05,1.37-6.37,2.19-9.61,3.12c-0.89,0.25-1.91,0.04-3.31,0.04c4.62,12.81,9.34,24.71,23.61,29.1c6.99,2.15,7.03,2.85,3.32,9.31
		c-3.45,6.01-8.79,9.42-15.31,10.99c-3.46,0.84-4.91,2.16-5.28,6.16c-0.66,7.11-3.39,13.88-7.93,19.49
		c-5.65,6.97-11.48,13.85-17.86,20.14c-7.66,7.55-17.24,8.48-27.38,6.03c-1.46-0.35-3.11-0.2-4.63,0
		c-2.04,0.28-4.04,1.19-6.05,1.19c-3.48,0-5.87,1.53-8.08,4.01c-2.15,2.4-4.59,4.56-6.98,6.74c-6.22,5.67-13.53,8.58-21.97,8.96
		c-8.51,0.38-17,1.71-25.5-0.12c-4.86-1.05-8.88-3.38-11.73-7.51c-1.73-2.51-1.35-3.41,1.58-4.01
		C443.03,181.72,450.33,176.36,458.27,172.23z M448.12,150.03c1.3,1.55,2.41,3.04,3.68,4.38c7.64,8.08,20.49,9.72,29.71,3.61
		c7.47-4.95,14.22-10.7,18.64-18.73c0.25-0.46,0.91-0.69,1.38-1.03c0.27,0.51,0.78,1.02,0.78,1.53c0.05,6.59-0.56,12.97-6.6,18.05
		c10.81-3.65,16.96-11.04,20.27-20.87c3.52-10.45,2.73-21.07,0.28-31.65c-0.19-0.82,0.15-1.77,0.25-2.66
		c0.68,0.56,1.53,1.01,2.01,1.71c2.23,3.24,4.35,6.54,6.52,9.82c0.24,0.37,0.79,0.93,0.69,1.08c-1.38,2.21,0.22,4.1,0.63,6.07
		c1.44,7.02,3.45,13.89,3.01,21.24c-0.68,11.62-11.61,18.59-22.25,13.87c-0.28-0.12-0.62-0.11-1.91-0.32
		c1.37,2.19,2.21,3.81,3.33,5.22c1.18,1.49,2.62,2.76,4.35,4.55c-1.62,0.39-2.58,0.62-3.75,0.9c0.5,0.56,0.83,0.97,1.21,1.32
		c7.07,6.52,22.48,7.2,30.39,0.44c6.24-5.34,11.78-11.58,17.15-17.84c6.46-7.53,10.47-16.26,10.86-26.43
		c0.04-0.94,1.36-2.21,2.38-2.65c3.13-1.34,6.49-2.13,9.58-3.53c5.19-2.34,8.13-6.72,10.28-12.12c-1.77-0.65-3.24-1.31-4.77-1.74
		c-6.55-1.83-11.69-5.69-15.16-11.4c-3.12-5.11-6.03-10.43-8.31-15.96c-3.96-9.6-9.87-17.92-15.93-26.18
		c-0.32-0.43-0.67-0.91-1.12-1.15c-3.97-2.03-7.96-4.01-12.04-6.06c-0.02,0.27-0.13,0.63-0.06,0.94c1.12,4.73,1.15,4.76-2.89,7.59
		c-3.89,2.73-7.86,5.36-11.75,8.1c-3.26,2.3-6.46,4.7-10.03,7.31c-0.16-1.06-0.33-1.56-0.3-2.04c0.29-4.02,0.65-8.03,0.91-12.06
		c0.24-3.68,0.27-7.37,0.61-11.03c0.09-0.99,0.78-2.33,1.6-2.77c1.93-1.04,1.88-2.35,1.26-4.04c-2.25-6.23-9.5-10.25-15.88-8.77
		c-1.4,0.32-2.78,0.7-4.18,1.04c-12.28,2.99-24.44,6.41-34.4,14.67c-14.04,11.66-24.49,25.19-21.53,45.07
		c1.41,9.48,4.76,17.88,12.83,23.72c1.47,1.06,3.09,1.9,5.08,3.12c-0.23-1.77-0.36-2.82-0.51-3.87c-0.39-2.66-0.07-3.01,2.6-2.57
		c1.6,0.26,3.19,0.63,5.36,1.06c-0.98-1.98-1.69-3.3-2.3-4.68c-1.75-3.93-3.6-7.83-5.14-11.84c-0.66-1.72-0.72-3.68-0.89-5.55
		c-0.04-0.47,0.46-1.11,0.9-1.43c0.17-0.12,1.02,0.32,1.25,0.7c3.9,6.32,9.89,10.31,15.77,14.49c3.6,2.56,5.6,6.14,6.18,10.62
		c0.72,5.55-0.99,10.57-3.38,15.29C469.1,137.76,461.91,147.42,448.12,150.03z M547.42,4.46c-4.38,3.91-9.2,3.96-14.23,3.28
		c-2.75-0.37-5.54-0.49-8.32-0.49c-4.48,0.01-5.39,1.21-4.89,5.72c0.09,0.82-0.28,1.68-0.43,2.52c-0.8-0.2-1.71-0.22-2.39-0.61
		c-8.87-5.12-18.34-8.7-28.37-10.54c-2.54-0.46-5.4,0.5-8.04,1.14c-0.69,0.17-1.6,1.67-1.49,2.43c0.45,3.08,1.03,6.19,2,9.14
		c0.91,2.74,2.88,4.1,6.14,4.11c6.21,0.02,12.38,0.81,18.05,3.67c4.91,2.48,8.72,6.02,10.16,11.56c0.51,1.95,0.48,3.7-1.96,4.58
		c-0.7,0.25-1.47,1.39-1.54,2.18c-0.5,5.52-0.83,11.06-1.19,16.6c-0.07,1.12-0.01,2.24-0.01,3.73c0.97-0.55,1.52-0.81,2.01-1.15
		c5.54-3.82,11.04-7.7,16.61-11.47c2.31-1.56,4.29-2.99,2.35-6.24c-0.41-0.69,0.05-2.48,0.72-3.06c0.51-0.44,2.08,0.01,3.01,0.44
		c2.84,1.3,5.64,2.72,8.38,4.22c1.55,0.85,3.37,1.66,4.35,3.01c4.75,6.52,9.25,13.22,13.88,19.82c0.46,0.65,1.25,1.46,1.94,1.51
		c3.81,0.3,7.52-0.14,10.89-2.22c1.78-1.1,2.33-2.46,1.64-4.54c-2.34-7.1-6.32-13.03-12.12-17.77c-3.2-2.61-6.36-5.28-9.36-8.11
		c-0.76-0.72-1.53-2.53-1.15-3.2c2.64-4.69,0.72-8.82-1-13.12c-1.79-4.48-3.36-9.05-4.96-13.6C547.76,7.05,547.7,5.98,547.42,4.46z
		 M434.99,186.3c2.22,3.91,6.67,6.62,12.64,6.78c7.7,0.21,15.41-0.17,23.12-0.31c8.33-0.15,15.27-3.58,21.3-9.12
		c2.38-2.19,4.59-4.6,7.13-6.57c1.61-1.25,3.64-2.09,5.61-2.74c2.32-0.76,4.78-1.11,6.34-1.45c-1.38-1.77-2.85-3.57-4.21-5.45
		c-0.56-0.77-1.21-1.71-1.18-2.55c0.01-0.45,1.37-0.86,1.94-1.19c-1.4-2.09-2.78-4.15-4.2-6.27c-0.06-0.01-0.25-0.07-0.41-0.03
		c-0.26,0.06-0.51,0.17-0.75,0.29c-5.28,2.49-10.69,3.49-16.47,1.81c-1-0.29-2.46,0.13-3.43,0.71c-3.91,2.33-7.84,4.33-12.59,4.15
		c-10.83-0.41-18.96-5.42-24.84-14.35c-0.51-0.77-0.7-1.75-1.04-2.63c0.99-0.19,2.01-0.64,2.95-0.52
		c3.66,0.48,6.86-0.48,10.55-2.92c-0.84-0.48-1.57-0.67-1.91-1.13c-3.25-4.39-6.72-8.65-9.53-13.3c-2.27-3.76-1.64-4.88,1.98-7.27
		c0.82-0.55,1.72-1,2.47-1.63c1.3-1.1,1.22-4.98-0.14-6.19c-2.09-1.87-3.05,0.12-4.03,1.37c-7.12,8.99-8.71,19.04-5.69,29.98
		c1.43,5.19,2.81,10.4,4.11,15.62c0.67,2.7-0.37,3.77-2.93,2.62c-3.15-1.42-6.79-2.79-8.89-5.29c-3.34-3.99-7.29-2.5-11.33-2.71
		c2.21,2.82,4.49,5.51,7.25,7.52c10.37,7.54,21.97,7.25,33.83,4.85c1.26-0.25,2.58-0.17,3.88-0.24c-0.83,1.07-1.61,2.2-2.53,3.19
		c-0.54,0.58-1.29,0.97-1.98,1.39C453.45,177.89,444.92,183.23,434.99,186.3z M412.32,109.04c2.92,3.73,6.26,5.86,10.27,5.74
		c3.86-0.12,3.82,1.11,3.56,4.47c-0.36,4.65-0.95,9.32-0.86,13.97c0.15,8.17,2.09,15.84,7.87,22.09c2.4,2.59,5.12,4.64,9.01,5.83
		c-1.21-5.2-2.59-9.94-3.35-14.78c-0.74-4.66-1.46-9.47-1.1-14.12c0.59-7.72,3.92-14.49,9.66-20.2
		c-8.3-6.31-11.46-15.21-13.24-24.97C430.22,97.74,424.16,106.11,412.32,109.04z M453.66,116.46c0.94,4.18-1.44,6.17-4.56,7.67
		c-2.11,1.01-2.43,2.69-1.2,4.42c3.16,4.45,6.47,8.79,9.76,13.14c0.89,1.17,1.86,1.06,2.96,0.08c7.66-6.82,13.11-15.06,15.31-25.11
		c1.05-4.8,0.24-9.7-3.84-13.09c-4.89-4.06-10.07-7.75-15.02-11.53c1.42,6.25,5.77,11.7,7.35,18.74c-3.15-0.46-5.63-0.83-8.37-1.24
		c0.37,1.47,0.61,2.52,0.89,3.55C457.9,116.69,457.75,116.88,453.66,116.46z M507.7,153.77c7.42,4.11,16.8-0.36,18.45-8.41
		c0.41-2.01,0.63-4.1,0.65-6.15c0.08-8.07-1.7-15.85-3.94-23.53c-0.38-1.32-1.47-2.43-2.23-3.63
		C521.93,127.81,520.45,142.38,507.7,153.77z M488.95,156.35c6.81,0.07,11.36-4.69,10.63-10.27
		C496.31,149.24,492.54,152.88,488.95,156.35z"/>
	<path class="st0" d="M470.38,113.65c-2.9,1.84-5.8,3.68-8.75,5.56c-0.6-1.7-1.04-2.93-1.48-4.16c-0.23,0.04-0.46,0.08-0.69,0.11
		c-0.39,2.1-0.79,4.2-1.19,6.34C461.02,122.74,469.32,118.02,470.38,113.65z"/>
	<path class="st0" d="M179.71,118.32h12.18c9.7,0,14.54,3.58,14.54,10.73c0,5.46-2.85,8.91-8.54,10.34c-2.34,0.44-5.24,0.57-8.72,0.39v6.48
		c0,3.45-2.34,5.87-7.01,7.27c-0.47-0.03-0.67-0.26-0.61-0.7v-28.52c0-2.19-1.04-3.83-3.11-4.91v-0.35
		C178.64,118.57,179.06,118.32,179.71,118.32z M189.17,122.48v13.1h3.46c4.23,0,6.35-2.18,6.35-6.53c0-4.38-2.18-6.57-6.53-6.57
		H189.17z"/>
	<path class="st0" d="M219.66,118.62h8.41c0.64,0,0.96,0.32,0.96,0.96v28.12c0,0.64,0.31,0.96,0.92,0.96h14.33c0.38,0.03,0.55,0.23,0.53,0.61
		c-0.2,0.85-0.82,1.67-1.84,2.45c-1.02,0.79-2.61,1.18-4.77,1.18h-14.85c-1.26,0-1.88-0.58-1.88-1.75v-26.55
		c0-2.16-1.01-3.85-3.02-5.08v-0.22C218.6,118.86,219.01,118.62,219.66,118.62z"/>
	<path class="st0" d="M269.25,118.36h4.56c0.82-0.06,1.34,0.28,1.58,1.01c7.53,21.85,11.3,32.93,11.3,33.25c0,0.23-0.12,0.35-0.35,0.35h-1.88
		c-3.53,0-6.13-2.12-7.8-6.35c-0.61-1.64-0.95-2.54-1.01-2.72h-11.39c-0.06,0.15-0.89,2.7-2.5,7.67c-0.2,0.38-0.6,0.7-1.18,0.96
		c-1.02,0.41-2.22,0.55-3.59,0.44c-0.23,0-0.35-0.12-0.35-0.35c0.93-3.36,4.61-14.44,11.04-33.25
		C267.96,118.67,268.49,118.33,269.25,118.36z M270.12,126.03l-4.51,13.67h8.81v-0.17l-4.12-13.49H270.12z"/>
	<path class="st0" d="M324.75,117.88c0.29-0.09,0.5,0.03,0.61,0.35l1.62,9.73c0.09,0.61-0.16,0.92-0.74,0.92h-0.09l-1.71-0.04
		c-0.41-0.03-0.66-0.23-0.74-0.61c-2.16-3.71-5.07-5.68-8.72-5.91c-3.77,0-6.44,1.94-8.02,5.83c-0.85,2.4-1.27,4.89-1.27,7.49
		c0,7.62,2.42,12.05,7.27,13.27c0.5,0.12,0.98,0.18,1.45,0.18h1.66c2.92,0,6.02-1.47,9.29-4.42c0.35-0.26,0.66-0.26,0.92,0
		l1.45,1.18c0.26,0.18,0.37,0.42,0.31,0.74c-1.26,2.19-3.2,3.97-5.83,5.34c-2.37,1.02-4.91,1.53-7.62,1.53
		c-9.4-0.09-14.98-4.61-16.73-13.58c-0.23-1.23-0.35-2.95-0.35-5.17c0-7.16,3.27-12.25,9.81-15.29c1.99-0.85,4.41-1.27,7.27-1.27
		c2.63,0,5.55,0.66,8.76,1.97C324.13,119.76,324.6,119.02,324.75,117.88z"/>
	<path class="st0" d="M341.04,118.14h22.47c0.38,0,0.69,0.12,0.92,0.35l1.01,4.64v0.57c-0.12,0.35-0.34,0.54-0.66,0.57
		c-0.82-1.17-2.02-1.72-3.59-1.66h-10.95v9.86h12.4c0.35,0.12,0.53,0.37,0.53,0.74v2.94c-0.03,0.44-0.26,0.69-0.7,0.74
		c-7.36,0.03-11.43,0.04-12.22,0.04v0.18c0,6.69,0,10.09,0,10.21h10.47c2.48-0.15,3.72-0.72,3.72-1.71h0.53
		c0.29,0.12,0.45,0.37,0.48,0.74l-0.66,6.05c-0.15,0.38-0.41,0.55-0.79,0.53h-20.63c-0.5-0.26-0.73-0.77-0.7-1.53v-27.86
		c0-1.81-1.02-3.24-3.07-4.29C339.86,118.51,340.34,118.14,341.04,118.14z"/>
	<path class="st0" d="M48.53,56.83c0.85-0.14,1.37,0.21,1.56,1.06l2.06,16.23c0.09,0.61-0.24,0.92-0.99,0.92l-4.18-0.07
		c-0.8,0.1-1.32-0.28-1.56-1.13c-2.36-6.28-6.69-9.47-12.97-9.57c-9.78,0.76-14.91,7.65-15.38,20.69
		c0.33,10.91,3.16,18.02,8.5,21.33c2.27,1.18,4.65,1.77,7.16,1.77c1.65,0,3.94-0.38,6.87-1.13V95.31c0-2.65-1.7-5.15-5.1-7.51
		c0.33-0.99,1.04-1.49,2.13-1.49h17.86c1.09,0,1.79,0.4,2.13,1.2v0.28c-3.4,2.27-5.1,5.15-5.1,8.65v11.98
		c0,2.83-3.31,4.79-9.92,5.88c-2.17,0.43-4.91,0.64-8.22,0.64h-3.33c-9.64-0.33-16.43-3.26-20.37-8.79
		c-3.95-5.53-5.87-12.5-5.78-20.9c-0.05-12.99,5.79-21.76,17.5-26.29c2.46-0.99,6-1.49,10.63-1.49c4.63,0,9.33,1.09,14.1,3.26
		C47.44,60.07,48.24,58.77,48.53,56.83z"/>
	<path class="st0" d="M64.76,57.82h36.35c0.61,0,1.11,0.19,1.49,0.57l1.63,7.51v0.92c-0.19,0.57-0.54,0.87-1.06,0.92
		c-1.32-1.89-3.26-2.79-5.81-2.69H79.64v15.94h20.05c0.57,0.19,0.85,0.59,0.85,1.2v4.75c-0.05,0.71-0.43,1.11-1.13,1.2
		c-11.91,0.05-18.5,0.07-19.77,0.07v0.28c0,10.82,0,16.32,0,16.51h16.94c4.01-0.24,6.02-1.16,6.02-2.76h0.85
		c0.47,0.19,0.73,0.59,0.78,1.2l-1.06,9.78c-0.24,0.61-0.66,0.9-1.28,0.85H68.51c-0.8-0.43-1.18-1.25-1.13-2.48V66.54
		c0-2.93-1.65-5.24-4.96-6.94C62.84,58.41,63.62,57.82,64.76,57.82z"/>
	<path class="st0" d="M114.15,57.96h14.1c1.65-0.05,2.86,0.54,3.61,1.77l22.96,32.38V68.88c0-4.54-1.77-7.68-5.31-9.43
		c0.28-0.99,0.97-1.49,2.06-1.49h15.87c0.57,0.19,0.97,0.57,1.2,1.13v0.64c-3.59,0.85-5.46,3.59-5.6,8.22v45.14
		c-0.05,0.57-0.45,0.97-1.2,1.2h-4.54c-2.03,0-3.73-1.04-5.1-3.12l-26.57-39.4v33.09c0,4.68-1.77,7.72-5.31,9.14
		c-1.46,0.43-2.36,0.64-2.69,0.64l-0.28-0.64V68.88c0-4.54-1.77-7.68-5.31-9.43C112.35,58.46,113.06,57.96,114.15,57.96z
		 M117.62,114.66c-0.19,0-0.28-0.19-0.28-0.57c0-0.33,0.09-0.5,0.28-0.5c0.28,0,0.43,0.17,0.43,0.5
		C118.04,114.47,117.9,114.66,117.62,114.66z"/>
	<path class="st0" d="M207.76,55.98h0.28c0.38,0.05,0.59,0.31,0.64,0.78l2.55,16.65c0,0.61-0.26,0.92-0.78,0.92h-3.33
		c-0.66,0.05-1.11-0.21-1.35-0.78c-3.31-5.48-7.8-8.43-13.46-8.86c-4.44,0-6.66,2.03-6.66,6.09c0,3.45,4.42,7.02,13.25,10.7
		c9.4,3.83,14.31,9.54,14.74,17.15c0.33,10.3-6.4,15.57-20.2,15.8c-8.6,0.09-15.19-3.64-19.77-11.2c-0.19-0.47-0.19-0.87,0-1.2
		l2.55-2.76c0.61-0.19,1.11-0.02,1.49,0.5c4.39,5.15,9.54,7.82,15.45,8.01c6.24,0,9.35-2.15,9.35-6.45
		c-0.24-2.5-4.72-6.09-13.46-10.77c-7.28-4.49-11.83-8.98-13.68-13.46c-0.8-1.94-1.02-4.44-0.64-7.51
		c2.13-7.89,8.41-11.76,18.85-11.62c4.06,0.19,7.61,1.09,10.63,2.69C205.87,60,207.05,58.44,207.76,55.98z"/>
	<path class="st0" d="M221.29,57.96h15.09c0.8,0.33,1.21,1.04,1.21,2.13v19.98h19.56V58.89c0-0.28,0.28-0.59,0.85-0.92h10.42
		c0.76,0.33,1.13,1.04,1.13,2.13v38.98c-0.24,6.33-1.69,10.46-4.36,12.4c-2.67,1.94-5.16,2.91-7.48,2.91l-0.57-0.85V87.44h-19.56
		l0.07,14.95c-0.05,5.34-2.24,8.86-6.59,10.56c-2.31,0.94-4.09,1.42-5.31,1.42l-0.64-0.85v-45.5c0-3.69-1.68-6.54-5.03-8.57v-0.28
		C220.13,58.6,220.54,58.2,221.29,57.96z M225.83,114.37c-0.47,0-0.71-0.21-0.71-0.64c0-0.42,0.24-0.64,0.71-0.64
		c0.43,0,0.64,0.21,0.64,0.64C226.47,114.16,226.25,114.37,225.83,114.37z M225.83,114.37c-0.47,0-0.71-0.21-0.71-0.64
		c0-0.42,0.24-0.64,0.71-0.64c0.43,0,0.64,0.21,0.64,0.64C226.47,114.16,226.25,114.37,225.83,114.37z M257.79,114.37
		c-0.43,0-0.64-0.21-0.64-0.64c0-0.42,0.21-0.64,0.64-0.64c0.47,0,0.71,0.21,0.71,0.64C258.5,114.16,258.26,114.37,257.79,114.37z"
		/>
	<path class="st0" d="M284.93,57.82h20.27c0.8,0.28,1.3,0.78,1.49,1.49v0.28c-3.35,2.03-5.03,4.46-5.03,7.3v38.34c0,2.83,1.68,5.27,5.03,7.3
		v0.28c-0.14,0.8-0.64,1.28-1.49,1.42h-20.27c-0.95-0.14-1.44-0.61-1.49-1.42v-0.28c3.4-2.03,5.1-4.46,5.1-7.3V66.89
		c0-2.83-1.7-5.27-5.1-7.3v-0.28C283.63,58.6,284.12,58.11,284.93,57.82z"/>
	<path class="st0" d="M313.91,57.96h14.1c1.65-0.05,2.86,0.54,3.61,1.77l22.96,32.38V68.88c0-4.54-1.77-7.68-5.31-9.43
		c0.28-0.99,0.97-1.49,2.05-1.49h15.87c0.57,0.19,0.97,0.57,1.2,1.13v0.64c-3.59,0.85-5.46,3.59-5.6,8.22v45.14
		c-0.05,0.57-0.45,0.97-1.21,1.2h-4.54c-2.03,0-3.73-1.04-5.1-3.12l-26.57-39.4v33.09c0,4.68-1.77,7.72-5.31,9.14
		c-1.46,0.43-2.36,0.64-2.69,0.64l-0.28-0.64V68.88c0-4.54-1.77-7.68-5.32-9.43C312.11,58.46,312.82,57.96,313.91,57.96z
		 M317.38,114.66c-0.19,0-0.28-0.19-0.28-0.57c0-0.33,0.09-0.5,0.28-0.5c0.28,0,0.43,0.17,0.43,0.5
		C317.81,114.47,317.66,114.66,317.38,114.66z"/>
	<rect class="st0" x="391.68" width="2.79" height="202.16"/>
</g>
</svg>
