<?xml version="1.0" encoding="utf-8"?>
<!-- Generator: Adobe Illustrator 26.3.1, SVG Export Plug-In . SVG Version: 6.00 Build 0)  -->
<svg version="1.1" id="Layer_1" xmlns="http://www.w3.org/2000/svg" xmlns:xlink="http://www.w3.org/1999/xlink" x="0px" y="0px"
	 viewBox="0 0 24 24" style="enable-background:new 0 0 24 24;" xml:space="preserve">
<style type="text/css">
	.st0{fill:#A3A745;}
</style>
<path class="st0" d="M18.9,5.6c-1.3-0.6-2.7-1-4.1-1.3c-0.2,0.3-0.4,0.8-0.5,1.1c-1.5-0.2-3.1-0.2-4.6,0C9.6,5,9.4,4.6,9.2,4.3
	C7.8,4.5,6.4,4.9,5,5.6c-2.6,3.9-3.3,7.8-3,11.6c1.5,1.2,3.2,2,5.1,2.6c0.4-0.6,0.8-1.2,1.1-1.8c-0.6-0.2-1.2-0.5-1.7-0.8
	c0.1-0.1,0.3-0.2,0.4-0.3c3.3,1.5,6.9,1.5,10.1,0c0.1,0.1,0.3,0.2,0.4,0.3c-0.5,0.3-1.1,0.6-1.7,0.8c0.3,0.6,0.7,1.2,1.1,1.8
	c1.8-0.6,3.5-1.4,5.1-2.6C22.3,12.7,21.2,8.9,18.9,5.6z M8.7,14.8c-1,0-1.8-0.9-1.8-2s0.8-2,1.8-2s1.8,0.9,1.8,2
	C10.5,13.9,9.7,14.8,8.7,14.8z M15.3,14.8c-1,0-1.8-0.9-1.8-2s0.8-2,1.8-2s1.8,0.9,1.8,2C17.1,13.9,16.3,14.8,15.3,14.8z"/>
</svg>
