<?xml version="1.0" encoding="utf-8"?>
<!-- Generator: Adobe Illustrator 22.1.0, SVG Export Plug-In . SVG Version: 6.00 Build 0)  -->
<svg version="1.1" xmlns="http://www.w3.org/2000/svg" xmlns:xlink="http://www.w3.org/1999/xlink" x="0px" y="0px"
	 viewBox="0 0 195.9 193" style="enable-background:new 0 0 195.9 193;" xml:space="preserve">
<style type="text/css">
	.st0{fill:#DDDDDD;}
	.st1{fill:#FFFFFF;}
</style>
<g id="Layer_2">
</g>
<g id="Layer_3">
</g>
<g id="Layer_1">
	<path class="st0" d="M181.9,140c-21-34-38-43-66-41s-47-2-47-2s-2,11,4,16s16,8,30,8s20,8,20,8S202.9,174,181.9,140z"/>
	<path class="st1" d="M195.9,172c-6-15-4-8-10-24c-4-16-35-28-62-19s-51,15-80-17c-9-11-22-20-41-19c-5,3-2,8-2,8c5,6,35,48,38,52
		s12,14,36,17s57-1,80,22c23,6,41-18,41-18"/>
	<path class="st1" d="M87.3,0c1.2-0.1,1.7,0.6,2.1,1.4c0.7,1.7,1.4,3.4,2,5.1c2.6,7.4,5.2,14.9,7.6,22.3c1.5,4.5,3.7,8.5,7.3,11.7
		c2.5,2.2,5.5,3.4,8.5,4.3c6,1.9,12,3.9,18,6c2.5,0.9,4.9,1.7,7.4,2.5c1.6,0.5,3.5,1.4,3.6,3c0.1,1.6-1.9,2.3-3.3,2.9
		c-2.7,1.1-5.5,2.1-8.3,3c-3.1,1.1-6.1,2.1-9.2,3.2c-2.8,0.9-5.4,2.1-8.3,2.8c-6.5,1.6-11.1,5.8-14.3,11.5c-1.2,2-1.5,4.6-2.2,6.9
		c-0.9,2.8-2.1,5.6-3,8.4c-0.8,2.5-1.9,4.9-2.5,7.5c-0.7,3.1-2,6-3.2,9c-0.7,1.8-2.2,2-3.7,0.5c-1.4-1.4-1.9-3.3-2.5-5.1
		c-1.4-4.4-2.9-8.9-4.5-13.2c-1.4-3.8-2.4-7.7-3.9-11.5c-2.3-6-6.3-10.6-12.3-13c-4.3-1.7-8.7-3.4-13.2-4.5c-3.1-0.7-6-2.1-9-3.3
		c-1.7-0.7-3.5-1.1-5.2-1.7c-1-0.4-2-0.8-2.8-1.3c-1.7-1-1.7-2.2-0.2-3.5c1.5-1.4,3.5-1.9,5.4-2.5c4.8-1.5,9.4-3.7,14.3-5
		c4.4-1.1,8.6-2.6,12.7-4.6c5.1-2.6,8.7-6.7,10.6-12.2c1.9-5.8,3.8-11.6,5.9-17.3c1.2-3.2,2.3-6.5,3.4-9.8c0.3-1,0.9-1.9,1.6-2.6
		C86.2,0.3,86.7-0.1,87.3,0z"/>
</g>
</svg>
