<?xml version="1.0" encoding="utf-8"?>
<!-- Generator: Adobe Illustrator 26.3.1, SVG Export Plug-In . SVG Version: 6.00 Build 0)  -->
<svg version="1.1" id="Layer_1" xmlns="http://www.w3.org/2000/svg" xmlns:xlink="http://www.w3.org/1999/xlink" x="0px" y="0px"
	 viewBox="0 0 204.49 210.17" style="enable-background:new 0 0 204.49 210.17;" xml:space="preserve">
<style type="text/css">
	.st0{fill:#A3A745;}
</style>
<g>
	<path class="st0" d="M103.45,5.68c16.86,0,33.72-0.02,50.57,0.01c6.74,0.01,13.44,0.5,19.87,2.71
		c16.36,5.62,26.11,17.1,29.46,33.96c0.78,3.95,1.07,8.05,1.08,12.09c0.08,36.21,0.07,72.41,0.02,108.62
		c-0.01,7.89-1.47,15.54-5.13,22.61c-6.92,13.36-17.98,21.04-32.75,23.47c-7.51,1.24-15.09,1.08-22.66,1.07
		c-25.69-0.02-51.39-0.04-77.08-0.1c-6.53-0.01-13.07-0.03-19.6-0.27c-8.25-0.3-16.33-1.52-23.72-5.59
		c-12.56-6.92-19.96-17.56-22.36-31.6c-0.73-4.24-1.06-8.6-1.07-12.91C-0.02,125.21,0,90.67,0.01,56.14c0-7.24,0.59-14.44,3.2-21.27
		C9.23,19.08,20.77,9.8,37.28,6.81c4.58-0.83,9.31-1.06,13.97-1.09c17.4-0.12,34.8-0.05,52.2-0.05
		C103.45,5.67,103.45,5.68,103.45,5.68z M26.62,107.91c0.06,0,0.11,0,0.17,0c0,6.4-0.17,12.81,0.05,19.21
		c0.24,7.06,0.36,14.18,1.39,21.15c2.67,18.1,15.71,30.94,33.67,33.87c6.61,1.08,13.27,1.27,19.94,1.3
		c13.52,0.06,27.05,0.14,40.57-0.08c6.7-0.11,13.46-0.37,20.06-1.39c17.55-2.69,29.56-14.28,33.43-31.54
		c1.47-6.56,1.67-13.24,1.71-19.9c0.13-18.71,0.58-37.42-0.46-56.12c-0.39-7-1.84-13.78-5.19-20c-6.67-12.4-17.39-19.04-31.09-20.77
		c-6.95-0.88-14.02-1.09-21.03-1.13c-15.46-0.08-30.92,0.09-46.38,0.25c-5.5,0.06-10.97,0.63-16.3,2.15
		c-12.44,3.54-21.33,11.14-26.31,23.15c-2.79,6.73-3.6,13.84-3.77,21.04C26.86,88.71,26.76,98.31,26.62,107.91z"/>
	<path class="st0" d="M40.57,107.91c0-8.97-0.12-17.94,0.05-26.91c0.08-4.13,0.39-8.31,1.2-12.35c2.45-12.21,10.68-20.02,23.1-21.49
		c7.36-0.87,14.83-1.02,22.25-1.13c11.45-0.17,22.9-0.15,34.34,0.05c6.34,0.11,12.74,0.3,18.98,1.29
		c12.91,2.05,20.97,10.58,22.55,23.59c0.72,5.93,0.97,11.95,1.04,17.93c0.15,12.71,0.18,25.43-0.01,38.14
		c-0.1,6.43-0.31,12.92-1.31,19.26c-2.02,12.84-10.65,21.03-23.67,22.44c-7.82,0.85-15.73,0.95-23.61,1.09
		c-9.78,0.16-19.56,0.13-29.34-0.05c-6.84-0.12-13.7-0.36-20.5-1.05c-7.37-0.74-13.78-3.74-18.55-9.7
		c-3.31-4.14-5.14-8.95-5.67-14.12c-0.61-5.95-0.9-11.95-1.06-17.93c-0.17-6.35-0.04-12.71-0.04-19.07
		C40.41,107.91,40.49,107.91,40.57,107.91z M140.97,107.94c0-21.46-17.21-38.7-38.66-38.74c-21.5-0.04-38.8,17.24-38.8,38.74
		c0.01,21.46,17.21,38.71,38.66,38.75C123.66,146.73,140.97,129.44,140.97,107.94z M142.56,76.61c5.03,0.01,9.04-3.97,9.05-8.99
		c0.01-5.02-3.99-9.01-9.02-9.01c-5.07,0-9.01,3.93-9.02,8.99C133.56,72.66,137.5,76.6,142.56,76.61z"/>
	<path class="st0" d="M127.42,107.95c0-13.91-11.2-25.16-25.07-25.18c-13.98-0.03-25.27,11.19-25.28,25.11
		c-0.01,13.98,11.2,25.25,25.14,25.26C116.17,133.14,127.42,121.9,127.42,107.95z"/>
	<path class="st0" d="M127.42,107.95c0,13.96-11.25,25.2-25.21,25.18c-13.94-0.01-25.16-11.28-25.14-25.26
		c0.01-13.93,11.31-25.14,25.28-25.11C116.22,82.79,127.42,94.04,127.42,107.95z"/>
</g>
</svg>
